# xmcd
#
# Track frame offsets: 
#        150
#        21236
#        38501
#        64720
#        83383
#        104797
#        128578
#        151381
#        183841
#        203280
#        221197
#        244675
#        264580
#        289774
#
# Disc length: 4199 seconds
#
# Revision: 0
# Processed by: cddbd v1.5.2PL0 Copyright (c) Steve Scherf et al.
# Submitted via: ExactAudioCopy v0.99pb5
#
DISCID=b810650e
DTITLE=Vargas Blues Band - Vargas Blues Band and Company
DYEAR=2012
DGENRE=Blues
TTITLE0=Do You Think I'm Sexy
TTITLE1=Pretty Blue
TTITLE2=Parisienne Walkways
TTITLE3=Rock Away The Blues
TTITLE4=Exotic Mambo
TTITLE5=Do You Believe In Love
TTITLE6=Blues In My Soul
TTITLE7=Riding High
TTITLE8=Body Shock
TTITLE9=Make Sweet Love 2U
TTITLE10=Blues For My Baby
TTITLE11=Man On The Run
TTITLE12=Blood Shot Blues
TTITLE13=Sad Eyes
EXTD=
EXTT0=
EXTT1=
EXTT2=
EXTT3=
EXTT4=
EXTT5=
EXTT6=
EXTT7=
EXTT8=
EXTT9=
EXTT10=
EXTT11=
EXTT12=
EXTT13=
PLAYORDER=
